<svg data-name="Your Icons" viewBox="0 0 96 96" xmlns="http://www.w3.org/2000/svg"><path d="M48 5.33 16.06 26l1.45 18.26A58.58 58.58 0 0 0 48 91.12a58.5 58.5 0 0 0 31.1-46.65l1.59-18Z" fill="none" stroke="#a33103" stroke-linecap="round" stroke-miterlimit="10" stroke-width="2px" class="stroke-000000"></path><path d="m48.05 83-.54-.36a51.18 51.18 0 0 1-23-39l-1.14-14.03L48 13.67l25.34 16.41-1.21 13.77A51.1 51.1 0 0 1 48.6 82.69ZM25.46 30.64l1 12.9a49.21 49.21 0 0 0 21.61 37.11 49.09 49.09 0 0 0 22.06-37l1.12-12.56L48 16.05Z" fill="#a33103" class="fill-000000"></path><path d="m46 58.1-13.28-11 3.91-4.72 8.56 7.08 16-19.34L65.91 34ZM35.53 46.85l10.2 8.43 17.36-21L61.45 33l-16 19.34-8.56-7.08Z" fill="#a33103" class="fill-000000"></path></svg>