<svg viewBox="0 0 100 100" xml:space="preserve" xmlns="http://www.w3.org/2000/svg" enable-background="new 0 0 100 100"><path d="M79.4 71.1H20.6c-2.4 0-4.4-2-4.4-4.4V33.3c0-2.4 2-4.4 4.4-4.4h58.9c2.4 0 4.4 2 4.4 4.4v33.4c-.1 2.4-2 4.4-4.5 4.4zM20.6 30.9c-1.3 0-2.4 1.1-2.4 2.4v33.4c0 1.3 1.1 2.4 2.4 2.4h58.9c1.3 0 2.4-1.1 2.4-2.4V33.3c0-1.3-1.1-2.4-2.4-2.4H20.6z" fill="#a33103" class="fill-000000"></path><path d="M36 63c-1 0-1.9-.2-2.7-.6-2.3-1.1-3.7-3.4-3.7-5.9 0-3.6 2.9-6.5 6.5-6.5s6.5 2.9 6.5 6.5c0 2.5-1.5 4.8-3.7 5.9-1.1.4-2 .6-2.9.6zm0-10.9c-2.5 0-4.5 2-4.5 4.5 0 1.7 1 3.3 2.6 4 1.2.6 2.6.6 3.8 0 1.6-.7 2.6-2.3 2.6-4-.1-2.5-2.1-4.5-4.5-4.5z" fill="#a33103" class="fill-000000"></path><path d="M29.5 63c-1 0-1.9-.2-2.7-.6-2.3-1.1-3.8-3.4-3.8-5.9 0-3.6 2.9-6.5 6.5-6.5s6.5 2.9 6.5 6.5c0 2.5-1.5 4.8-3.7 5.9-.9.4-1.9.6-2.8.6zm0-10.9c-2.5 0-4.5 2-4.5 4.5 0 1.7 1 3.3 2.6 4 1.2.6 2.6.6 3.8 0 1.6-.7 2.6-2.3 2.6-4-.1-2.5-2.1-4.5-4.5-4.5zM75 46H55c-.6 0-1-.4-1-1s.4-1 1-1h20c.6 0 1 .4 1 1s-.4 1-1 1zM17.2 38.8h65.5v2H17.2z" fill="#a33103" class="fill-000000"></path></svg>